<!DOCTYPE svg PUBLIC "-//W3C//DTD SVG 20010904//EN" "http://www.w3.org/TR/2001/REC-SVG-20010904/DTD/svg10.dtd">
<svg version="1.0" xmlns="http://www.w3.org/2000/svg" width="194px" height="58px" viewBox="0 0 1940 580" preserveAspectRatio="xMidYMid meet">
<g id="layer1" fill="#39cb9e" stroke="none">
 <path d="M1197 529 c-39 -11 -57 -28 -78 -74 -34 -75 -21 -197 27 -255 59 -69 149 -58 183 23 l18 42 17 -52 c14 -42 20 -50 36 -46 25 7 25 7 -6 100 -27 85 -26 114 6 185 24 54 25 78 3 78 -11 0 -24 -15 -35 -41 l-17 -40 -33 36 c-37 40 -80 55 -121 44z m79 -51 c41 -48 57 -95 51 -147 -7 -61 -40 -128 -70 -142 -60 -27 -116 46 -117 154 0 119 80 199 136 135z"/>
 <path d="M80 517 c0 -15 156 -450 171 -479 22 -42 64 -8 93 74 10 29 47 131 82 226 35 96 64 178 64 183 0 5 -9 9 -19 9 -21 0 -26 -12 -132 -302 -48 -132 -55 -145 -65 -125 -6 12 -42 105 -78 206 -37 101 -71 192 -77 202 -11 22 -39 25 -39 6z"/>
 <path d="M566 508 c-10 -38 -7 -435 4 -462 11 -30 45 -35 59 -8 5 9 39 106 76 215 37 108 71 197 74 197 4 0 38 -90 76 -200 68 -198 89 -238 120 -227 13 6 15 41 15 257 0 243 -1 250 -20 250 -19 0 -20 -7 -20 -202 0 -111 -3 -198 -7 -194 -4 4 -37 93 -74 199 -61 177 -68 192 -90 192 -22 0 -29 -14 -91 -198 -36 -110 -69 -201 -72 -205 -3 -3 -6 71 -6 164 0 93 -3 186 -6 207 -7 41 -28 49 -38 15z"/>
 <path d="M1595 520 c-44 -17 -46 -26 -43 -266 3 -196 5 -229 18 -229 13 0 16 34 21 225 3 124 6 226 7 228 1 1 49 2 106 2 57 0 111 3 120 6 23 9 19 31 -6 38 -33 9 -200 6 -223 -4z"/>
 </g>

</svg>